<?xml version="1.0" encoding="UTF-8"?>
<svg width="40" height="40" viewBox="0 0 40 40" xmlns="http://www.w3.org/2000/svg">
  <defs>
    <linearGradient id="TwGrad" x1="0%" y1="0%" x2="100%" y2="100%">
      <stop offset="0%" stop-color="#0EA5E9"/>
      <stop offset="100%" stop-color="#06B6D4"/>
    </linearGradient>
  </defs>
  <rect width="40" height="40" rx="8" fill="url(#TwGrad)"/>
  <g fill="#fff">
    <!-- Stylized wave design inspired by Tailwind -->
    <path d="M7.5 17.5c1.5-4 5-6 9.5-5 3 0.5 5 2 6.5 4.5 0.5 0.8 1 1.8 1.5 2.5-1.5 4-5 6-9.5 5-3-0.5-5-2-6.5-4.5-0.5-0.8-1-1.8-1.5-2.5z" opacity="0.9"/>
    <path d="M5.5 24c1.2-3 4-4.5 7-4 2 0.3 3.5 1.5 4.5 3.5 0.3 0.6 0.6 1.3 1 2-1.2 3-4 4.5-7 4-2-0.3-3.5-1.5-4.5-3.5-0.3-0.6-0.6-1.3-1-2z" opacity="0.7"/>
    
    <!-- IDE-related design elements -->
    <path d="M29 17l4 4-4 4v-8z" opacity="0.8"/>
    <rect x="26" y="10" width="8" height="2" rx="1" opacity="0.8"/>
    <rect x="26" y="28" width="8" height="2" rx="1" opacity="0.8"/>
  </g>
</svg>
